<?xml version="1.0" ?><svg viewBox="0 0 24 24" xmlns="http://www.w3.org/2000/svg"><defs><style>.cls-1{fill:#f7bf75;}.cls-2{fill:#96ccee;}.cls-3{fill:#f94060;}</style></defs><g data-name="Structure Organization" id="Structure_Organization"><path class="cls-1" d="M13.26,3.4A1.4,1.4,0,1,1,11.86,2a1.4,1.4,0,0,1,1.4,1.4"/><path class="cls-1" d="M11.8,6.25A2.76,2.76,0,0,0,9.11,8.87a5,5,0,0,0,2.75.84,5,5,0,0,0,2.76-.84,2.77,2.77,0,0,0-2.76-2.62Z"/><path class="cls-2" d="M5.59,20.15a1.86,1.86,0,1,1-1.85-1.86,1.85,1.85,0,0,1,1.85,1.86"/><path class="cls-3" d="M21.84,14.71A1.85,1.85,0,1,1,20,12.86a1.86,1.86,0,0,1,1.85,1.85"/><path class="cls-2" d="M21.84,20.15A1.85,1.85,0,1,1,20,18.29a1.85,1.85,0,0,1,1.85,1.86"/><path class="cls-2" d="M13.72,20.15a1.86,1.86,0,1,1-1.86-1.86,1.85,1.85,0,0,1,1.86,1.86"/><path d="M13.76,3.4a1.9,1.9,0,1,0-1.9,1.9A1.9,1.9,0,0,0,13.76,3.4ZM11,3.4a.9.9,0,1,1,.9.9A.9.9,0,0,1,11,3.4Z"/><path d="M3.73,10.84a.51.51,0,0,0-.5.5v6.51a2.36,2.36,0,1,0,1,0v-6H19.49v.57a2.38,2.38,0,0,0-1.8,1.8H11.86a.51.51,0,0,0-.5.5v3.14a2.36,2.36,0,1,0,1,0V15.21h5.33a2.37,2.37,0,0,0,1.8,1.8v.84a2.35,2.35,0,1,0,1,0V17a2.35,2.35,0,0,0,0-4.6V11.34a.5.5,0,0,0-.5-.5H12.36v-.67a5.43,5.43,0,0,0,2.54-.89.53.53,0,0,0,.22-.44,3.26,3.26,0,0,0-3.26-3.09h-.07A3.28,3.28,0,0,0,8.61,8.84a.48.48,0,0,0,.22.44,5.39,5.39,0,0,0,2.53.89v.67Zm1.36,9.31a1.36,1.36,0,1,1-1.35-1.36A1.36,1.36,0,0,1,5.09,20.15Zm8.13,0a1.36,1.36,0,1,1-1.36-1.36A1.36,1.36,0,0,1,13.22,20.15Zm8.12,0A1.35,1.35,0,1,1,20,18.79,1.35,1.35,0,0,1,21.34,20.15ZM20,13.36h0a1.35,1.35,0,1,1-1.35,1.35A1.34,1.34,0,0,1,20,13.36ZM9.64,8.61a2.28,2.28,0,0,1,2.17-1.86v-.5l.06.5a2.25,2.25,0,0,1,2.22,1.86A4.5,4.5,0,0,1,9.64,8.61Z"/></g></svg>